<svg xmlns="http://www.w3.org/2000/svg" width="1200" height="800" viewBox="0 0 1200 800" fill="white">
  <circle cx="934" cy="183" r="0.9" opacity="0.95" />
  <circle cx="44" cy="570" r="0.9" opacity="0.8" />
  <circle cx="734" cy="306" r="0.65" opacity="0.4" />
  <circle cx="301" cy="427" r="0.9" opacity="0.4" />
  <circle cx="971" cy="781" r="1.25" opacity="0.8" />
  <circle cx="768" cy="427" r="1.25" opacity="0.8" />
  <circle cx="453" cy="725" r="1.25" opacity="0.95" />
  <circle cx="555" cy="716" r="0.9" opacity="0.5" />
  <circle cx="999" cy="295" r="0.9" opacity="0.95" />
  <circle cx="529" cy="142" r="1.25" opacity="0.5" />
  <circle cx="1146" cy="422" r="0.65" opacity="0.95" />
  <circle cx="362" cy="551" r="1.25" opacity="0.65" />
  <circle cx="613" cy="329" r="0.65" opacity="0.65" />
  <circle cx="345" cy="258" r="0.65" opacity="0.4" />
  <circle cx="1111" cy="181" r="0.65" opacity="0.65" />
  <circle cx="732" cy="226" r="0.65" opacity="0.95" />
  <circle cx="450" cy="782" r="0.9" opacity="0.65" />
  <circle cx="227" cy="86" r="0.9" opacity="0.4" />
  <circle cx="601" cy="645" r="0.65" opacity="0.8" />
  <circle cx="987" cy="579" r="0.9" opacity="0.4" />
  <circle cx="1073" cy="755" r="0.9" opacity="0.4" />
  <circle cx="346" cy="145" r="0.65" opacity="0.8" />
  <circle cx="978" cy="251" r="0.9" opacity="0.8" />
  <circle cx="659" cy="155" r="1.25" opacity="0.3" />
  <circle cx="741" cy="30" r="0.9" opacity="0.4" />
  <circle cx="269" cy="376" r="0.9" opacity="0.95" />
  <circle cx="564" cy="748" r="0.65" opacity="0.95" />
  <circle cx="938" cy="80" r="1.25" opacity="0.8" />
  <circle cx="543" cy="359" r="0.65" opacity="0.65" />
  <circle cx="1057" cy="586" r="1.25" opacity="0.65" />
  <circle cx="700" cy="220" r="0.65" opacity="0.3" />
  <circle cx="213" cy="356" r="0.65" opacity="0.8" />
  <circle cx="1060" cy="699" r="0.65" opacity="0.3" />
  <circle cx="269" cy="77" r="0.65" opacity="0.3" />
  <circle cx="24" cy="665" r="1.25" opacity="0.4" />
  <circle cx="303" cy="494" r="1.25" opacity="0.4" />
  <circle cx="100" cy="601" r="0.9" opacity="0.65" />
  <circle cx="949" cy="135" r="0.65" opacity="0.4" />
  <circle cx="755" cy="363" r="0.65" opacity="0.5" />
  <circle cx="625" cy="150" r="1.6" opacity="0.8" />
  <circle cx="458" cy="626" r="0.65" opacity="0.8" />
  <circle cx="565" cy="323" r="0.65" opacity="0.5" />
  <circle cx="1103" cy="80" r="0.9" opacity="0.3" />
  <circle cx="345" cy="788" r="1.6" opacity="0.5" />
  <circle cx="74" cy="484" r="1.25" opacity="0.3" />
  <circle cx="531" cy="298" r="1.25" opacity="0.5" />
  <circle cx="43" cy="159" r="0.65" opacity="0.95" />
  <circle cx="281" cy="505" r="1.25" opacity="0.65" />
  <circle cx="468" cy="602" r="0.65" opacity="0.3" />
  <circle cx="916" cy="388" r="0.65" opacity="0.3" />
  <circle cx="285" cy="98" r="1.25" opacity="0.4" />
  <circle cx="30" cy="360" r="0.9" opacity="0.3" />
  <circle cx="1023" cy="134" r="0.65" opacity="0.4" />
  <circle cx="749" cy="125" r="1.25" opacity="0.5" />
  <circle cx="488" cy="465" r="0.65" opacity="0.3" />
  <circle cx="534" cy="84" r="1.25" opacity="0.8" />
  <circle cx="69" cy="691" r="0.9" opacity="0.4" />
  <circle cx="52" cy="606" r="1.25" opacity="0.95" />
  <circle cx="502" cy="536" r="1.25" opacity="0.65" />
  <circle cx="875" cy="306" r="0.65" opacity="0.65" />
  <circle cx="838" cy="440" r="0.65" opacity="0.95" />
  <circle cx="910" cy="307" r="0.9" opacity="0.5" />
  <circle cx="299" cy="694" r="0.9" opacity="0.95" />
  <circle cx="614" cy="728" r="0.65" opacity="0.65" />
  <circle cx="461" cy="398" r="0.9" opacity="0.4" />
  <circle cx="1171" cy="451" r="0.9" opacity="0.3" />
  <circle cx="1000" cy="194" r="0.65" opacity="0.8" />
  <circle cx="910" cy="395" r="1.25" opacity="0.5" />
  <circle cx="384" cy="573" r="1.25" opacity="0.5" />
  <circle cx="578" cy="127" r="0.65" opacity="0.4" />
  <circle cx="138" cy="298" r="0.9" opacity="0.8" />
  <circle cx="860" cy="406" r="0.9" opacity="0.8" />
  <circle cx="764" cy="258" r="0.9" opacity="0.65" />
  <circle cx="486" cy="24" r="0.9" opacity="0.65" />
  <circle cx="657" cy="555" r="0.9" opacity="0.4" />
  <circle cx="668" cy="674" r="0.9" opacity="0.3" />
  <circle cx="1076" cy="258" r="1.6" opacity="0.65" />
  <circle cx="1085" cy="464" r="0.9" opacity="0.3" />
  <circle cx="331" cy="642" r="0.9" opacity="0.8" />
  <circle cx="522" cy="589" r="0.9" opacity="0.8" />
  <circle cx="526" cy="529" r="1.25" opacity="0.8" />
  <circle cx="1143" cy="257" r="1.6" opacity="0.5" />
  <circle cx="46" cy="701" r="0.9" opacity="0.95" />
  <circle cx="145" cy="397" r="0.65" opacity="0.8" />
  <circle cx="745" cy="212" r="0.65" opacity="0.5" />
  <circle cx="478" cy="17" r="0.65" opacity="0.65" />
  <circle cx="430" cy="450" r="0.65" opacity="0.8" />
  <circle cx="1078" cy="604" r="0.65" opacity="0.95" />
  <circle cx="818" cy="6" r="0.65" opacity="0.5" />
  <circle cx="689" cy="422" r="1.25" opacity="0.5" />
  <circle cx="162" cy="630" r="1.25" opacity="0.5" />
  <circle cx="291" cy="607" r="0.65" opacity="0.4" />
  <circle cx="37" cy="740" r="0.65" opacity="0.5" />
  <circle cx="409" cy="565" r="1.6" opacity="0.5" />
  <circle cx="1110" cy="317" r="0.9" opacity="0.4" />
  <circle cx="150" cy="386" r="1.6" opacity="0.4" />
  <circle cx="43" cy="260" r="0.9" opacity="0.65" />
  <circle cx="523" cy="559" r="0.65" opacity="0.65" />
  <circle cx="416" cy="621" r="0.65" opacity="0.8" />
  <circle cx="607" cy="370" r="0.65" opacity="0.4" />
  <circle cx="831" cy="205" r="0.9" opacity="0.8" />
  <circle cx="967" cy="485" r="0.9" opacity="0.3" />
  <circle cx="1146" cy="238" r="0.9" opacity="0.3" />
  <circle cx="773" cy="321" r="0.65" opacity="0.8" />
  <circle cx="516" cy="17" r="0.65" opacity="0.8" />
  <circle cx="1154" cy="557" r="0.65" opacity="0.3" />
  <circle cx="1058" cy="536" r="0.9" opacity="0.3" />
  <circle cx="373" cy="33" r="0.9" opacity="0.4" />
  <circle cx="900" cy="726" r="0.9" opacity="0.3" />
  <circle cx="296" cy="34" r="0.65" opacity="0.3" />
  <circle cx="825" cy="84" r="0.9" opacity="0.65" />
  <circle cx="97" cy="721" r="0.9" opacity="0.5" />
  <circle cx="943" cy="677" r="0.9" opacity="0.8" />
  <circle cx="406" cy="237" r="0.65" opacity="0.3" />
  <circle cx="234" cy="226" r="0.65" opacity="0.95" />
  <circle cx="896" cy="330" r="0.9" opacity="0.65" />
  <circle cx="146" cy="174" r="1.6" opacity="0.4" />
  <circle cx="331" cy="576" r="0.9" opacity="0.95" />
  <circle cx="397" cy="532" r="0.9" opacity="0.4" />
  <circle cx="332" cy="372" r="0.9" opacity="0.3" />
  <circle cx="268" cy="720" r="1.6" opacity="0.8" />
  <circle cx="1074" cy="127" r="0.65" opacity="0.65" />
  <circle cx="71" cy="300" r="1.25" opacity="0.4" />
  <circle cx="556" cy="737" r="1.25" opacity="0.5" />
  <circle cx="1060" cy="141" r="0.65" opacity="0.4" />
  <circle cx="584" cy="701" r="0.9" opacity="0.4" />
  <circle cx="460" cy="743" r="0.65" opacity="0.95" />
  <circle cx="416" cy="696" r="0.65" opacity="0.8" />
  <circle cx="66" cy="747" r="0.65" opacity="0.3" />
  <circle cx="115" cy="345" r="0.65" opacity="0.3" />
  <circle cx="995" cy="498" r="0.9" opacity="0.65" />
  <circle cx="128" cy="455" r="0.65" opacity="0.5" />
  <circle cx="209" cy="721" r="1.25" opacity="0.95" />
  <circle cx="1111" cy="710" r="0.9" opacity="0.5" />
  <circle cx="362" cy="39" r="0.9" opacity="0.3" />
  <circle cx="327" cy="433" r="0.65" opacity="0.95" />
  <circle cx="318" cy="373" r="0.9" opacity="0.65" />
  <circle cx="179" cy="528" r="0.65" opacity="0.95" />
  <circle cx="399" cy="783" r="0.65" opacity="0.3" />
  <circle cx="1013" cy="339" r="0.9" opacity="0.95" />
  <circle cx="117" cy="719" r="1.6" opacity="0.5" />
  <circle cx="653" cy="37" r="0.65" opacity="0.95" />
  <circle cx="26" cy="715" r="1.6" opacity="0.4" />
  <circle cx="70" cy="447" r="1.25" opacity="0.3" />
  <circle cx="418" cy="481" r="0.9" opacity="0.95" />
  <circle cx="343" cy="355" r="0.65" opacity="0.5" />
  <circle cx="1126" cy="492" r="1.25" opacity="0.8" />
  <circle cx="458" cy="23" r="0.9" opacity="0.65" />
  <circle cx="463" cy="620" r="0.9" opacity="0.65" />
  <circle cx="61" cy="267" r="0.9" opacity="0.65" />
  <circle cx="336" cy="280" r="0.9" opacity="0.8" />
  <circle cx="795" cy="705" r="0.65" opacity="0.65" />
  <circle cx="1082" cy="634" r="0.65" opacity="0.95" />
  <circle cx="163" cy="612" r="0.9" opacity="0.8" />
  <circle cx="1051" cy="483" r="0.9" opacity="0.65" />
  <circle cx="982" cy="696" r="0.65" opacity="0.4" />
  <circle cx="240" cy="85" r="1.25" opacity="0.65" />
  <circle cx="177" cy="476" r="1.25" opacity="0.65" />
  <circle cx="597" cy="702" r="0.65" opacity="0.8" />
  <circle cx="190" cy="588" r="1.25" opacity="0.95" />
</svg>
